<?xml version="1.0" standalone="yes"?>

<svg version="1.1" viewBox="0.0 0.0 264.0 100.0" fill="none" stroke="none" stroke-linecap="square" stroke-miterlimit="10" xmlns="http://www.w3.org/2000/svg" xmlns:xlink="http://www.w3.org/1999/xlink"><clipPath id="p.0"><path d="m0 0l264.0 0l0 100.0l-264.0 0l0 -100.0z" clip-rule="nonzero"></path></clipPath><g clip-path="url(#p.0)"><path fill="#000000" fill-opacity="0.0" d="m0 0l264.02625 0l0 100.0l-264.02625 0z" fill-rule="nonzero"></path><path fill="#000000" fill-opacity="0.0" d="m0 9.385827l263.46457 0l0 69.22835l-263.46457 0z" fill-rule="nonzero"></path><path fill="#2196f3" d="m23.5 40.997074q-6.765625 0 -9.875 -1.484375q-3.09375 -1.5 -3.09375 -5.578125q0 -1.4375 0.484375 -4.078125q3.3125 1.390625 7.875 2.234375q4.5625 0.84375 7.15625 0.84375q1.8125 -3.21875 5.03125 -3.21875q2.109375 0 3.28125 1.328125q1.1875 1.3125 1.1875 3.359375q0 2.03125 -1.59375 3.8125l-1.671875 13.765625q-0.4375 3.703125 -1.90625 6.640625q-1.453125 2.921875 -3.46875 4.59375q-4.078125 3.4062538 -8.40625 3.4062538q-4.3125 0 -6.90625 -1.890625q-2.59375 -1.8906288 -2.59375 -4.609379q0 -2.71875 1.578125 -4.265625q1.59375 -1.5625 3.71875 -1.5625q2.140625 0 3.96875 1.484375q1.828125 1.484375 2.78125 4.46875l1.203125 -0.96875q-1.296875 -3.59375 -1.296875 -5.75q0 -1.203125 0.90625 -5.515625q0.921875 -4.328125 1.640625 -7.015625zm13.247177 8.78125q0 -9.125 5.078125 -14.609375q5.09375 -5.5 13.921875 -5.5q2.84375 0 4.0625 1.125q1.21875 1.125 1.21875 3.484375q0 0.328125 -0.09375 1.296875q1.78125 -1.453125 3.9375 -1.453125q2.921875 0 5.015625 2.625q2.09375 2.609375 2.09375 7.5625q0 4.9375 -1.59375 9.078125q-1.578125 4.125 -4.203125 6.765625q-2.609375 2.625 -5.953125 4.078129q-3.328125 1.4375 -6.875 1.4375q-7.6875 0 -12.15625 -4.390629q-4.453125 -4.390625 -4.453125 -11.5zm23.953125 2.25q-3.078125 -3.734375 -3.078125 -8.046875q0 -4.328125 1.921875 -6.96875q-0.859375 -0.140625 -1.734375 -0.140625q-3.40625 0 -5.890625 2.0625q-4.71875 3.828125 -4.71875 10.65625q0 3.890625 1.734375 6.484375q1.734375 2.578125 4.796875 2.578125q2.359375 0 4.296875 -1.84375q1.953125 -1.84375 2.671875 -4.78125zm20.917694 13.687504q-3.109375 0 -4.453125 -1.7968788q-1.34375 -1.8125 -1.34375 -5.375q0 -3.578125 3.015625 -20.28125l-2.546875 -5.140625q5.4375 -3.5 9.890625 -3.5q3.703125 0 3.703125 4.5q0 1.5 -1.859375 11.078125q-1.84375 9.5625 -1.84375 11.390625q0 4.65625 1.4375 6.96875q-2.875 2.1562538 -6.0 2.1562538zm37.452164 -8.781254l1.140625 -0.765625q-3.109375 -6.0 -3.109375 -13.15625q0 -5.578125 2.75 -9.453125q2.765625 -3.890625 7.8125 -3.890625q2.625 0 4.453125 0.90625q-0.484375 2.6875 -1.71875 9.359375q-2.6875 14.359375 -2.6875 16.46875q0 4.5625 1.53125 6.8125q-2.109375 1.3906288 -3.890625 1.9218788q-1.78125 0.53125 -4.59375 0.53125q-2.796875 0 -5.078125 -1.203125q-2.28125 -1.2031288 -3.75 -3.1875038q-1.453125 -2.0 -2.46875 -4.921875q-1.765625 -5.140625 -2.15625 -13.0625l-0.765625 0q-2.203125 9.984375 -2.203125 13.96875q0 3.984375 1.4375 6.296875q-2.890625 2.1562538 -6.015625 2.1562538q-3.109375 0 -4.453125 -1.7968788q-1.34375 -1.8125 -1.34375 -5.375q0 -3.578125 3.015625 -20.28125l-2.53125 -5.140625q5.375 -3.453125 9.59375 -3.453125q4.21875 0 6.375 1.46875q2.171875 1.453125 3.03125 4.296875q0.859375 2.828125 1.265625 5.96875q0.421875 3.140625 1.453125 7.5625q1.03125 4.40625 2.90625 7.96875zm29.613235 -7.15625q0 -9.125 5.078125 -14.609375q5.09375 -5.5 13.921875 -5.5q2.84375 0 4.0625 1.125q1.21875 1.125 1.21875 3.484375q0 0.328125 -0.09375 1.296875q1.78125 -1.453125 3.9375 -1.453125q2.921875 0 5.015625 2.625q2.09375 2.609375 2.09375 7.5625q0 4.9375 -1.59375 9.078125q-1.578125 4.125 -4.203125 6.765625q-2.609375 2.625 -5.953125 4.078129q-3.328125 1.4375 -6.875 1.4375q-7.6875 0 -12.15625 -4.390629q-4.453125 -4.390625 -4.453125 -11.5zm23.953125 2.25q-3.078125 -3.734375 -3.078125 -8.046875q0 -4.328125 1.921875 -6.96875q-0.859375 -0.140625 -1.734375 -0.140625q-3.40625 0 -5.890625 2.0625q-4.71875 3.828125 -4.71875 10.65625q0 3.890625 1.734375 6.484375q1.734375 2.578125 4.796875 2.578125q2.359375 0 4.296875 -1.84375q1.953125 -1.84375 2.671875 -4.78125zm39.74582 4.90625l1.140625 -0.765625q-3.109375 -6.0 -3.109375 -13.15625q0 -5.578125 2.75 -9.453125q2.765625 -3.890625 7.8125 -3.890625q2.625 0 4.453125 0.90625q-0.484375 2.6875 -1.71875 9.359375q-2.6875 14.359375 -2.6875 16.46875q0 4.5625 1.53125 6.8125q-2.109375 1.3906288 -3.890625 1.9218788q-1.78125 0.53125 -4.59375 0.53125q-2.796875 0 -5.078125 -1.203125q-2.28125 -1.2031288 -3.75 -3.1875038q-1.453125 -2.0 -2.46875 -4.921875q-1.765625 -5.140625 -2.15625 -13.0625l-0.765625 0q-2.203125 9.984375 -2.203125 13.96875q0 3.984375 1.4375 6.296875q-2.890625 2.1562538 -6.015625 2.1562538q-3.109375 0 -4.453125 -1.7968788q-1.34375 -1.8125 -1.34375 -5.375q0 -3.578125 3.015625 -20.28125l-2.53125 -5.140625q5.375 -3.453125 9.59375 -3.453125q4.21875 0 6.375 1.46875q2.171875 1.453125 3.03125 4.296875q0.859375 2.828125 1.265625 5.96875q0.421875 3.140625 1.453125 7.5625q1.03125 4.40625 2.90625 7.96875z" fill-rule="nonzero"></path></g></svg>

